HIERARCHY
ROOT joint_0
{
	OFFSET 0.000000 0.000000 0.000000
	CHANNELS 6 Xposition Yposition Zposition Zrotation Yrotation Xrotation 
	JOINT joint_1
	{
		OFFSET 4.520508 -1.939880 86.268921
		CHANNELS 3 Zrotation Yrotation Xrotation
		JOINT joint_2
		{
			OFFSET -4.459717 -0.438538 78.934082
			CHANNELS 3 Zrotation Yrotation Xrotation
			JOINT joint_3
			{
				OFFSET -5.197754 -0.781128 78.796997
				CHANNELS 3 Zrotation Yrotation Xrotation
				JOINT joint_4
				{
					OFFSET 2.952026 -3.710571 109.812988
					CHANNELS 3 Zrotation Yrotation Xrotation
					JOINT joint_5
					{
						OFFSET 24.716797 -5.488037 87.903931
						CHANNELS 3 Zrotation Yrotation Xrotation
						End Site
						{
							OFFSET 0.000000 0.000000 0.000000
						}
					}
				}
				JOINT joint_6
				{
					OFFSET -3.154419 -25.484680 60.934937
					CHANNELS 3 Zrotation Yrotation Xrotation
					JOINT joint_7
					{
						OFFSET -28.997192 -144.472229 -32.671997
						CHANNELS 3 Zrotation Yrotation Xrotation
						JOINT joint_8
						{
							OFFSET 19.867676 -18.614380 -249.897949
							CHANNELS 3 Zrotation Yrotation Xrotation
							JOINT joint_9
							{
								OFFSET 5.281982 -13.816650 -264.993042
								CHANNELS 3 Zrotation Yrotation Xrotation
								End Site
								{
									OFFSET 0.000000 0.000000 0.000000
								}
							}
						}
					}
				}
				JOINT joint_10
				{
					OFFSET 6.494995 21.336792 62.257935
					CHANNELS 3 Zrotation Yrotation Xrotation
					JOINT joint_11
					{
						OFFSET 31.106567 145.200745 -27.007935
						CHANNELS 3 Zrotation Yrotation Xrotation
						JOINT joint_12
						{
							OFFSET 29.119141 24.684326 -248.460083
							CHANNELS 3 Zrotation Yrotation Xrotation
							JOINT joint_13
							{
								OFFSET 21.220093 31.248413 -262.703979
								CHANNELS 3 Zrotation Yrotation Xrotation
								End Site
								{
									OFFSET 0.000000 0.000000 0.000000
								}
							}
						}
					}
				}
			}
		}
	}
	JOINT joint_14
	{
		OFFSET -15.458496 -88.861694 -109.593018
		CHANNELS 3 Zrotation Yrotation Xrotation
		JOINT joint_15
		{
			OFFSET -6.193359 6.837952 -506.710999
			CHANNELS 3 Zrotation Yrotation Xrotation
			JOINT joint_16
			{
				OFFSET -35.096680 13.289795 -435.677025
				CHANNELS 3 Zrotation Yrotation Xrotation
				JOINT joint_17
				{
					OFFSET 158.491211 -33.916565 -71.771002
					CHANNELS 3 Zrotation Yrotation Xrotation
					End Site
					{
						OFFSET 0.000000 0.000000 0.000000
					}
				}
			}
		}
	}
	JOINT joint_18
	{
		OFFSET 23.116943 86.574158 -110.082031
		CHANNELS 3 Zrotation Yrotation Xrotation
		JOINT joint_19
		{
			OFFSET -6.125854 -0.283569 -506.757019
			CHANNELS 3 Zrotation Yrotation Xrotation
			JOINT joint_20
			{
				OFFSET -63.240234 11.589966 -432.537994
				CHANNELS 3 Zrotation Yrotation Xrotation
				JOINT joint_21
				{
					OFFSET 156.074219 -41.487305 -73.077999
					CHANNELS 3 Zrotation Yrotation Xrotation
					End Site
					{
						OFFSET 0.000000 0.000000 0.000000
					}
				}
			}
		}
	}
}
MOTION
Frames: 6
Frame Time: 0.016667
-372.469513 856.612793 1138.953003 2.445123 -0.829572 0.234062 -0.166001 1.269937 -0.783031 -0.122527 -0.273777 0.191952 -0.137192 0.244045 -0.100985 -0.364972 2.866819 1.914548 0.000000 0.000000 0.000000 0.063964 0.369100 -0.942173 0.198597 -0.120429 1.346957 -0.040038 0.237665 -1.323473 0.000000 0.000000 0.000000 0.372512 0.078090 0.392194 -0.042120 0.120351 -0.164675 -0.083315 -0.961421 0.400123 0.000000 0.000000 0.000000 -0.358468 -2.609234 -1.344397 -0.267471 5.367032 0.887211 -0.352789 -1.769763 -0.538460 0.000000 0.000000 0.000000 0.042430 -1.883667 -0.510138 0.029368 4.131281 0.792031 0.057102 -1.076442 -0.259626 0.000000 0.000000 0.000000 
-372.438721 856.598328 1138.979980 2.448098 -0.818238 0.235622 -0.159544 1.293523 -0.774462 -0.116732 -0.275804 0.190491 -0.131149 0.245594 -0.099332 -0.364812 2.864091 1.912963 0.000000 0.000000 0.000000 0.063868 0.367674 -0.936993 0.198379 -0.119753 1.341816 -0.039932 0.232860 -1.329774 0.000000 0.000000 0.000000 0.375802 0.077925 0.389246 -0.041359 0.116496 -0.152568 -0.080431 -0.947376 0.415133 0.000000 0.000000 0.000000 -0.359484 -2.599423 -1.337137 -0.269065 5.320873 0.868522 -0.354260 -1.733561 -0.531369 0.000000 0.000000 0.000000 0.035191 -1.881409 -0.520919 0.021684 4.102883 0.813678 0.053246 -1.064276 -0.258192 0.000000 0.000000 0.000000 
-372.421722 856.598083 1139.017944 2.446811 -0.805143 0.239677 -0.152692 1.319636 -0.762759 -0.110844 -0.275935 0.187190 -0.124911 0.246213 -0.097556 -0.364712 2.857021 1.910690 0.000000 0.000000 0.000000 0.067181 0.362857 -0.933029 0.198401 -0.121838 1.335890 -0.039548 0.221059 -1.340348 0.000000 0.000000 0.000000 0.379831 0.075703 0.387217 -0.041192 0.111493 -0.144939 -0.077538 -0.932746 0.429364 0.000000 0.000000 0.000000 -0.358123 -2.591142 -1.333042 -0.268305 5.271373 0.849532 -0.353381 -1.696486 -0.523031 0.000000 0.000000 0.000000 0.029914 -1.872702 -0.535213 0.015933 4.055310 0.834712 0.051401 -1.043374 -0.253493 0.000000 0.000000 0.000000 
-372.407471 856.614868 1139.062012 2.440710 -0.786164 0.247188 -0.147557 1.344061 -0.751796 -0.106661 -0.278470 0.183656 -0.120280 0.248661 -0.095102 -0.363518 2.853108 1.905277 0.000000 0.000000 0.000000 0.073844 0.353671 -0.931593 0.198335 -0.127643 1.328080 -0.038934 0.206018 -1.348362 0.000000 0.000000 0.000000 0.390052 0.074880 0.380989 -0.040654 0.105443 -0.135146 -0.076195 -0.924558 0.433950 0.000000 0.000000 0.000000 -0.355107 -2.589931 -1.335947 -0.265872 5.222409 0.835789 -0.350539 -1.663248 -0.514630 0.000000 0.000000 0.000000 0.027110 -1.862992 -0.552829 0.012677 3.992403 0.852394 0.051667 -1.015600 -0.245980 0.000000 0.000000 0.000000 
-372.382812 856.658508 1139.109009 2.429039 -0.757051 0.259826 -0.143845 1.361481 -0.743342 -0.103575 -0.284715 0.183411 -0.117057 0.253256 -0.094816 -0.360293 2.856948 1.894381 0.000000 0.000000 0.000000 0.078856 0.340911 -0.935243 0.198176 -0.138184 1.319232 -0.038092 0.189119 -1.350680 0.000000 0.000000 0.000000 0.405139 0.077644 0.369719 -0.039135 0.100206 -0.120822 -0.077424 -0.926939 0.422367 0.000000 0.000000 0.000000 -0.350478 -2.600798 -1.351022 -0.261797 5.176817 0.833286 -0.345435 -1.639456 -0.507234 0.000000 0.000000 0.000000 0.027414 -1.853065 -0.577214 0.012511 3.908002 0.868302 0.054948 -0.980857 -0.235203 0.000000 0.000000 0.000000 
-372.361908 856.720215 1139.161987 2.413505 -0.722000 0.275609 -0.142398 1.377806 -0.734968 -0.102741 -0.294995 0.183857 -0.116114 0.262099 -0.095415 -0.356073 2.861168 1.880118 0.000000 0.000000 0.000000 0.088187 0.323132 -0.941068 0.197936 -0.152810 1.308507 -0.036983 0.168356 -1.350285 0.000000 0.000000 0.000000 0.426927 0.081063 0.354901 -0.037343 0.093263 -0.104604 -0.080161 -0.935509 0.401297 0.000000 0.000000 0.000000 -0.344748 -2.618739 -1.372854 -0.256603 5.131685 0.836173 -0.338889 -1.619352 -0.499977 0.000000 0.000000 0.000000 0.029936 -1.842336 -0.604865 0.014585 3.808129 0.881163 0.060156 -0.939053 -0.221648 0.000000 0.000000 0.000000 
